<?xml version="1.0" encoding="utf-8"?>
<!-- Generator: Adobe Illustrator 24.0.0, SVG Export Plug-In . SVG Version: 6.00 Build 0)  -->
<svg version="1.1" xmlns="http://www.w3.org/2000/svg" xmlns:xlink="http://www.w3.org/1999/xlink" x="0px" y="0px"
	 viewBox="0 0 500 500" style="enable-background:new 0 0 500 500;" xml:space="preserve">
<style type="text/css">
	.st0{fill:#00C6A1;}
	.st1{opacity:0.2;}
	.st2{fill:#007D65;}
	.st3{fill:#FFFFFF;}
	.st4{fill:#FDA803;}
	.st5{fill:#02313D;}
	.st6{fill:#FDFDFD;}
	.st7{fill:#8FD1E8;}
	.st8{fill:#FDBFAC;}
	.st9{fill:#FF653F;}
	.st10{fill:#182632;}
	.st11{fill:#FA8403;}
	.st12{fill:#F63E28;}
	.st13{fill:#D8D8D8;}
	.st14{fill:#060E16;}
	.st15{opacity:0.3;fill:#FFFFFF;}
	.st16{fill:#FFAA01;}
	.st17{fill:#243042;}
	.st18{fill:#FC8601;}
	.st19{fill:#FF633E;}
	.st20{fill:#FF4D43;}
</style>
<g id="BACKGROUND">
</g>
<g id="OBJECTS">
	<g>
		<rect x="0" class="st0" width="500" height="500"/>
		<g>
			<g>
				<circle class="st1" cx="250" cy="299.4" r="144.7"/>
				<g>
					<g class="st1">
						<path d="M130.8,170.2c-1.7,1.6-3.4,3.2-5,4.8c-14,14-25.3,29.9-33.9,47.5c1,0.4,2,0.9,2.9,1.4c8.4-17.3,19.5-32.9,33.2-46.7
							c1.6-1.6,3.3-3.3,5-4.8C132.3,171.8,131.5,171,130.8,170.2z"/>
						<path d="M78.6,279.6h-3.3c-0.7,6.5-1.1,13.1-1.1,19.7c0,21.4,3.8,42.3,11.3,62.1H89c-7.7-19.8-11.5-40.7-11.5-62.1
							C77.5,292.7,77.8,286.2,78.6,279.6z"/>
						<path d="M181.6,137.4c-2.7,1.2-5.4,2.4-8.1,3.7c0.7,0.9,1.4,1.7,2.1,2.6c2.4-1.1,4.8-2.2,7.3-3.3c11.6-4.9,23.6-8.5,35.9-10.8
							v-3.3C206,128.6,193.6,132.3,181.6,137.4z"/>
						<path d="M318.5,137.4c-13.7-5.8-27.9-9.8-42.4-11.9v3.3c14.1,2.1,27.9,6,41.2,11.6c3.1,1.3,6.2,2.7,9.2,4.2
							c0.9-0.8,1.8-1.5,2.7-2.3C325.6,140.6,322.1,138.9,318.5,137.4z"/>
						<path d="M412,230.9c-8.9-20.9-21.5-39.7-37.7-55.9c-0.3-0.3-0.7-0.7-1-1c-0.9,0.7-1.8,1.3-2.7,1.9c0.5,0.5,1,0.9,1.4,1.4
							c15.8,15.8,28.3,34.3,37,54.8c1.5,3.6,2.9,7.3,4.2,11c0.9-0.8,1.7-1.6,2.6-2.4C414.6,237.5,413.4,234.2,412,230.9z"/>
						<path d="M421.7,282.3c0.6,5.7,0.8,11.4,0.8,17.1c0,21.5-3.9,42.3-11.5,62.1h3.5c7.5-19.8,11.3-40.7,11.3-62.1
							c0-5.7-0.3-11.4-0.8-17.1H421.7z"/>
					</g>
					<g>
						<path class="st1" d="M80.2,227.2c-12.5,0-22.6,10.1-22.6,22.6s10.1,22.6,22.6,22.6s22.6-10.1,22.6-22.6S92.6,227.2,80.2,227.2
							z M81.1,258.1v-7.9h10.2c-0.1,2.8-0.5,5.5-1.2,7.9H81.1z M87.5,267.1c1.7-2.1,3-4.5,3.9-7.2h6.9c-2.9,5.2-7.8,8.8-13.5,10.1
							C85.7,269.1,86.6,268.2,87.5,267.1z M89.5,259.9c-0.9,2.2-2,4.2-3.4,6c-2.2,2.8-4.3,4.2-5,4.6l0-10.6H89.5z M81.1,238.6V229
							c0.3,0,0.5,0,0.8,0.1c1.1,1,4.7,4.2,7.1,9.6H81.1z M91,238.6c-0.8-1.9-1.8-3.8-3-5.5c-0.9-1.3-1.8-2.4-2.9-3.5
							c5.2,1.3,9.8,4.5,12.6,9.1H91z M81.1,248.4v-7.9h8.6c0.9,2.5,1.5,5.2,1.6,7.9H81.1z M93.1,248.4c-0.1-2.7-0.6-5.3-1.5-7.9h7.1
							c1.2,2.5,2,5.1,2.2,7.9H93.1z M100.9,250.2c-0.1,2.8-0.6,5.4-1.7,7.9H92c0.7-2.5,1.1-5.1,1.1-7.9H100.9z M68.6,258.1h-7.4
							c-1.1-2.5-1.7-5.2-1.7-7.9h8C67.5,253,67.9,255.6,68.6,258.1z M71.6,238.6c0.7-1.6,1.5-3.1,2.5-4.5c1.9-2.7,3.8-4.5,4.6-5.1
							c0.2,0,0.4,0,0.6,0v9.6H71.6z M79.3,240.4v7.9h-10c0.1-2.7,0.6-5.4,1.6-7.9H79.3z M62.6,238.6c2.9-4.6,7.6-7.9,12.9-9.1
							c-1,1.1-2,2.3-2.9,3.6c-1.2,1.7-2.2,3.6-3,5.5H62.6z M79.3,250.2v7.9h-8.8c-0.7-2.4-1.1-5.1-1.2-7.9H79.3z M59.5,248.4
							c0.2-2.8,0.9-5.4,2.2-7.9h7.3c-0.9,2.6-1.4,5.2-1.5,7.9H59.5z M69.2,259.9c0.9,2.7,2.3,5.1,3.9,7.2c0.9,1.1,1.8,2.1,2.8,3
							c-5.8-1.2-10.9-5-13.8-10.2H69.2z M79.3,259.9v10.5c-1.4-0.9-5.7-4-8.2-10.5H79.3z"/>
					</g>
					<path class="st1" d="M449.9,259.5c-0.1-4.5-3.4-8.2-7.8-8.8c-2.3-4.8-7.1-8.1-12.8-8.1c-5.6,0-10.4,3.3-12.7,8
						c-4.5,0.5-8,4.1-8.2,8.6c-3.4,0.9-6,4-6,7.6c0,4.3,3.5,7.9,7.9,7.9h14.4v-9h-4.5l4.3-6.1l4.3-6.1l4.3,6.1l4.3,6.1h-4.5v9h14.4
						c4.3,0,7.9-3.5,7.9-7.9C455,263.5,452.9,260.6,449.9,259.5z"/>
					<g>
						<path class="st1" d="M162.6,168c0.5-0.8,0.5-1.9,0-2.7l-8.9-13c4.1-4.5,4.8-11.4,1.2-16.6c-2.4-3.6-6.3-5.6-10.3-5.8
							c-1-0.1-2,0-3,0.2c-1.8,0.3-3.6,1-5.3,2.1c-2.3,1.6-4,3.8-4.9,6.3c-1.3,3.5-1.2,7.5,0.6,10.9c0.2,0.5,0.5,0.9,0.8,1.4
							c3.6,5.2,10.2,7.1,15.9,4.9l8.9,13c0.6,0.8,1.6,1.2,2.5,1l0.1,0.2c0.5,0.7,1.4,0.9,2.1,0.4c0.7-0.5,0.9-1.4,0.4-2.1L162.6,168
							z M148.9,150.7c-1.6,1.1-3.4,1.6-5.2,1.6c-2.9,0-5.8-1.4-7.6-4c-2.9-4.2-1.8-9.9,2.4-12.8c1.6-1.1,3.4-1.6,5.2-1.6
							c2.9,0,5.8,1.4,7.6,4C154.2,142.1,153.1,147.9,148.9,150.7z"/>
					</g>
					<g class="st1">
						<path d="M245.8,135.3c-7.6,0-13.8-6.2-13.8-13.8c0-2,0.4-3.9,1.2-5.6l0.6,5.8c0.1,0.7,0.7,1.2,1.3,1.2c0,0,0.1,0,0.1,0
							c0.7-0.1,1.3-0.7,1.2-1.5l-0.9-8.9c-0.1-0.7-0.7-1.3-1.5-1.2l-8.9,0.9c-0.7,0.1-1.3,0.7-1.2,1.5c0.1,0.7,0.7,1.3,1.5,1.2
							l4.5-0.5c-1,2.2-1.6,4.6-1.6,7.2c0,9.6,7.8,17.4,17.4,17.4c2.3,0,4.6-0.5,6.6-1.3c-0.8-1-1.7-1.9-2.6-2.9
							C248.6,135.1,247.2,135.3,245.8,135.3z"/>
						<path d="M268.5,125.5c-0.4-0.6-1.2-0.8-1.8-0.5l-4.7,2.8c0.8-2,1.2-4.1,1.2-6.4c0-9.6-7.8-17.4-17.4-17.4
							c-2.1,0-4.1,0.4-5.9,1.1c1,0.9,1.9,1.9,2.8,2.9c1-0.2,2-0.4,3.1-0.4c7.6,0,13.8,6.2,13.8,13.8c0,1.8-0.3,3.5-1,5l-2.4-4.1
							c-0.4-0.6-1.2-0.8-1.8-0.5c-0.6,0.4-0.8,1.2-0.5,1.8l4.6,7.7c0.3,0.4,0.7,0.7,1.2,0.7c0.2,0,0.5-0.1,0.7-0.2l7.7-4.6
							C268.7,126.9,268.9,126.1,268.5,125.5z"/>
					</g>
					<g class="st1">
						<path d="M376.9,150.8v-4.8h-4.2c-0.3-1.5-0.8-2.8-1.6-4l3.2-3.2l-3.4-3.4l-3.3,3.3c-0.8-0.5-1.7-0.9-2.7-1.1V133H360v4.2
							c-1.5,0.3-2.8,0.8-4,1.6l-2.8-2.8l-3.4,3.4l2.9,2.9c-0.6,1.1-1.1,2.3-1.3,3.5h-4.2v4.8h4.4c0.4,1.3,1,2.6,1.8,3.7l-3.2,3.2
							l3.4,3.4l3.5-3.5c0.9,0.5,1.9,0.8,3,1v4.2h4.8v-4.4c1-0.3,1.9-0.6,2.7-1.1l3.3,3.3l3.4-3.4L371,154c0.6-1,1.1-2.1,1.4-3.2
							H376.9z M362,152.4c-2.4,0-4.4-2-4.4-4.4c0-2.4,2-4.4,4.4-4.4c2.4,0,4.4,2,4.4,4.4C366.4,150.4,364.4,152.4,362,152.4z"/>
						<path d="M349.6,165.8v-2.4h-2.1c-0.1-0.7-0.4-1.4-0.8-2l1.6-1.6l-1.7-1.7l-1.7,1.7c-0.4-0.2-0.9-0.4-1.4-0.6v-2.2h-2.4v2.1
							c-0.7,0.1-1.4,0.4-2,0.8l-1.4-1.4l-1.7,1.7l1.5,1.5c-0.3,0.5-0.5,1.1-0.7,1.8h-2.1v2.4h2.2c0.2,0.7,0.5,1.3,0.9,1.8l-1.6,1.6
							l1.7,1.7l1.7-1.7c0.5,0.2,1,0.4,1.5,0.5v2.1h2.4v-2.2c0.5-0.1,0.9-0.3,1.4-0.6l1.7,1.7l1.7-1.7l-1.6-1.6
							c0.3-0.5,0.6-1,0.7-1.6H349.6z M342.1,166.6c-1.2,0-2.2-1-2.2-2.2c0-1.2,1-2.2,2.2-2.2c1.2,0,2.2,1,2.2,2.2
							C344.3,165.6,343.4,166.6,342.1,166.6z"/>
					</g>
				</g>
			</g>
			<rect x="0" y="361.5" class="st2" width="500" height="138.5"/>
			<g>
				<path class="st3" d="M102.5,186.1c-10.8,1.2-11.8,2.2-13,13c-1.2-10.8-2.2-11.8-13-13c10.8-1.2,11.8-2.2,13-13
					C90.8,183.9,91.7,184.9,102.5,186.1z"/>
				<path class="st3" d="M452.3,224c-10.8,1.2-11.8,2.2-13,13c-1.2-10.8-2.2-11.8-13-13c10.8-1.2,11.8-2.2,13-13
					C440.6,221.8,441.6,222.8,452.3,224z"/>
			</g>
			<ellipse class="st1" cx="252.3" cy="394.3" rx="224.8" ry="17.2"/>
			<g>
				<g>
					<g>
						<path class="st4" d="M98.4,380.3l-0.9-0.1c-1.9-0.2-3.3-2-3.1-3.9l6.2-55.9l7.9,0.9l-6.2,55.9
							C102,379.2,100.3,380.6,98.4,380.3z"/>
					</g>
					
						<rect x="101.2" y="309.1" transform="matrix(0.9939 0.1101 -0.1101 0.9939 35.319 -9.6612)" class="st5" width="7.9" height="11.8"/>
					<path class="st6" d="M113.6,299.6c-0.1,3.2-1.1,6.7-3.9,9.9l-7.9-0.9c0,0-2.6-4.8-1.1-9.1c0.3-0.9,0.7-1.7,1-2.3c0,0,0,0,0,0
						c3-5.1,7.3-1.3,6.7-12.3C108.5,285,113.9,291.8,113.6,299.6z"/>
					<path class="st7" d="M113.6,299.6c-2,2.3-6.2-0.6-7.6-2.1c-1.7-1.8-4.2-0.3-4.2-0.2c3-5.1,7.3-1.3,6.7-12.3
						C108.5,285,113.9,291.8,113.6,299.6z"/>
				</g>
				<g>
					
						<rect x="62" y="317.5" transform="matrix(0.9943 -0.1065 0.1065 0.9943 -36.4199 8.9594)" class="st4" width="7.4" height="56.1"/>
					<polygon class="st8" points="66.4,317.2 59,318 60.9,312.5 61.8,309.6 63.4,312.2 					"/>
					
						<rect x="64.7" y="369.4" transform="matrix(0.9943 -0.1065 0.1065 0.9943 -39.1581 9.4014)" class="st5" width="7.4" height="4.1"/>
					<path class="st9" d="M69.9,376.6l-1.7,0.2c-1.6,0.2-3-1-3.2-2.6l0-0.4l7.4-0.8l0,0.4C72.6,375,71.4,376.4,69.9,376.6z"/>
					<polygon class="st10" points="63.4,312.2 60.9,312.5 61.8,309.6 					"/>
					
						<rect x="64.4" y="366.4" transform="matrix(0.9943 -0.1065 0.1065 0.9943 -38.7897 9.3419)" class="st11" width="7.4" height="2.9"/>
					<path class="st11" d="M60.6,320.6l4.4,41.3c0,0.3,0.3,0.5,0.6,0.5l0,0c0.3,0,0.5-0.3,0.5-0.6l-4.4-41.3c0-0.3-0.3-0.5-0.6-0.5
						l0,0C60.8,320.1,60.6,320.3,60.6,320.6z"/>
					<path class="st11" d="M64.3,320.3l4.4,41.3c0,0.3,0.3,0.5,0.6,0.5l0,0c0.3,0,0.5-0.3,0.5-0.6l-4.4-41.3c0-0.3-0.3-0.5-0.6-0.5
						l0,0C64.5,319.7,64.2,319.9,64.3,320.3z"/>
				</g>
				<g>
					
						<rect x="87.3" y="312.8" transform="matrix(-0.9962 -8.699673e-02 8.699673e-02 -0.9962 151.956 688.3583)" class="st4" width="7.4" height="56.1"/>
					<polygon class="st8" points="84.8,368.5 92.2,369.1 89.3,374.2 87.8,376.8 86.8,374 					"/>
					
						<rect x="89.5" y="312.9" transform="matrix(-0.9962 -8.699673e-02 8.699673e-02 -0.9962 158.7267 636.8317)" class="st5" width="7.4" height="4.1"/>
					<path class="st9" d="M92.9,309.6l1.7,0.1c1.6,0.1,2.8,1.5,2.6,3.1l0,0.4l-7.4-0.6l0-0.4C89.9,310.7,91.3,309.5,92.9,309.6z"/>
					<polygon class="st10" points="86.8,374 89.3,374.2 87.8,376.8 					"/>
					
						<rect x="91.5" y="314.7" transform="matrix(8.698332e-02 -0.9962 0.9962 8.698332e-02 -232.384 383.3273)" class="st11" width="2.9" height="7.4"/>
					<path class="st11" d="M91.2,366.3l3.6-41.4c0-0.3-0.2-0.6-0.5-0.6l0,0c-0.3,0-0.6,0.2-0.6,0.5L90,366.2c0,0.3,0.2,0.6,0.5,0.6
						l0,0C90.9,366.8,91.1,366.6,91.2,366.3z"/>
					<path class="st11" d="M87.5,365.9l3.6-41.4c0-0.3-0.2-0.6-0.5-0.6l0,0c-0.3,0-0.6,0.2-0.6,0.5l-3.6,41.4c0,0.3,0.2,0.6,0.5,0.6
						l0,0C87.2,366.5,87.5,366.3,87.5,365.9z"/>
				</g>
				<g>
					
						<rect x="72.2" y="317.5" transform="matrix(0.9943 -0.1065 0.1065 0.9943 -36.3617 10.0499)" class="st9" width="7.4" height="56.1"/>
					<polygon class="st8" points="76.6,317.2 69.2,318 71.1,312.5 72.1,309.6 73.6,312.2 					"/>
					
						<rect x="75" y="369.4" transform="matrix(0.9943 -0.1065 0.1065 0.9943 -39.0998 10.4919)" class="st5" width="7.4" height="4.1"/>
					<path class="st9" d="M80.1,376.6l-1.7,0.2c-1.6,0.2-3-1-3.2-2.6l0-0.4l7.4-0.8l0,0.4C82.8,375,81.7,376.4,80.1,376.6z"/>
					<polygon class="st9" points="73.6,312.2 71.1,312.5 72.1,309.6 					"/>
					
						<rect x="74.6" y="366.4" transform="matrix(0.9943 -0.1065 0.1065 0.9943 -38.7315 10.4324)" class="st11" width="7.4" height="2.9"/>
					<path class="st12" d="M70.8,320.6l4.4,41.3c0,0.3,0.3,0.5,0.6,0.5l0,0c0.3,0,0.5-0.3,0.5-0.6L72,320.5c0-0.3-0.3-0.5-0.6-0.5
						l0,0C71,320.1,70.8,320.3,70.8,320.6z"/>
					<path class="st12" d="M74.5,320.3l4.4,41.3c0,0.3,0.3,0.5,0.6,0.5l0,0c0.3,0,0.5-0.3,0.5-0.6l-4.4-41.3c0-0.3-0.3-0.5-0.6-0.5
						l0,0C74.7,319.7,74.5,319.9,74.5,320.3z"/>
				</g>
				<polygon class="st5" points="111.6,338.7 111.1,343.5 109.9,354 105.4,393.7 66.5,393.7 62,354 60.8,343.5 60.3,338.7 				"/>
				<path class="st5" d="M111.8,343.9H60.1c-2,0-3.7-1.6-3.7-3.7v-0.9c0-2,1.6-3.7,3.7-3.7h51.7c2,0,3.7,1.6,3.7,3.7v0.9
					C115.5,342.2,113.8,343.9,111.8,343.9z"/>
				<polygon class="st1" points="111.1,343.5 109.9,354 62,354 60.8,343.5 				"/>
			</g>
			<g>
				<path class="st5" d="M374.7,206.6v126.1H125.6V206.6c0-6.7,5.4-12,12-12h225C369.3,194.5,374.7,199.9,374.7,206.6z"/>
				<rect x="125.7" y="269.8" class="st1" width="249.1" height="62.9"/>
				<path class="st6" d="M366.2,208.3v109.3c0,1.5-1.2,2.7-2.7,2.7H136.8c-0.6,0-1.1-0.2-1.5-0.5c-0.7-0.5-1.2-1.3-1.2-2.2V208.3
					c0-1.5,1.2-2.7,2.7-2.7h226.8c0.9,0,1.8,0.5,2.3,1.2C366.1,207.2,366.2,207.7,366.2,208.3z"/>
				<path class="st6" d="M374.7,332.7c0,3.3-0.8,6.4-2.2,9.1c-0.9,1.8-2.1,3.4-3.5,4.8c-3.6,3.6-8.5,5.8-13.9,5.8H145.4
					c-7.6,0-14.2-4.3-17.5-10.6c-1.4-2.7-2.2-5.8-2.2-9.1H374.7z"/>
				<path class="st13" d="M372.5,341.8c-0.9,1.8-2.1,3.4-3.5,4.8c-3.6,3.6-8.5,5.8-13.9,5.8H145.4c-7.6,0-14.2-4.3-17.4-10.6H372.5z
					"/>
				<path class="st5" d="M268.8,341.5v0.6c0,1.3-1,2.3-2.3,2.3h-32.7c-1.3,0-2.3-1-2.3-2.3v-0.6c0-1.3,1-2.3,2.3-2.3h32.7
					C267.8,339.3,268.8,340.3,268.8,341.5z"/>
				<rect x="213.4" y="352.4" class="st5" width="73.6" height="30.7"/>
				<rect x="213.4" y="352.4" class="st1" width="73.6" height="11.3"/>
				<path class="st13" d="M313.5,393.7H186.9v-1.2c0-5.2,4.2-9.4,9.4-9.4h107.9c5.2,0,9.4,4.2,9.4,9.4V393.7z"/>
				<g>
					<g>
						<rect x="144.1" y="228" class="st7" width="214.2" height="7.3"/>
					</g>
					<g>
						<g>
							<rect x="245.5" y="241.6" class="st7" width="47" height="7.3"/>
							<rect x="193.5" y="241.6" class="st7" width="45.2" height="7.3"/>
							<rect x="193.5" y="254.6" class="st7" width="45.2" height="7.3"/>
							<rect x="245.5" y="254.6" class="st7" width="47" height="7.3"/>
						</g>
						<g>
							<rect x="245.5" y="267.9" class="st7" width="47" height="7.3"/>
							<rect x="193.5" y="267.9" class="st7" width="45.2" height="7.3"/>
							<rect x="245.5" y="280.8" class="st7" width="47" height="7.3"/>
							<rect x="193.5" y="280.8" class="st7" width="45.2" height="7.3"/>
						</g>
						<g>
							<rect x="245.5" y="294.6" class="st7" width="47" height="7.3"/>
							<rect x="193.5" y="294.6" class="st7" width="45.2" height="7.3"/>
						</g>
					</g>
					<g>
						<rect x="143" y="277.3" class="st9" width="45.2" height="7.3"/>
						<rect x="143" y="290.3" class="st9" width="45.2" height="7.3"/>
					</g>
					<g>
						<rect x="143" y="304.1" class="st9" width="45.2" height="7.3"/>
					</g>
					<g>
						<g>
							<rect x="296.8" y="241.3" class="st9" width="57.4" height="7.3"/>
							<path class="st9" d="M347,258.9c0.3,2.9-4.8,2.9-4.8,2.9h-45.4v-7.3H350C350,254.5,346.7,256.1,347,258.9z"/>
						</g>
					</g>
					<g>
						<rect x="143.5" y="241.3" class="st7" width="42.6" height="30.5"/>
						<polygon class="st14" points="186.1,263.7 184.1,260.2 177.2,248.6 163.5,271.7 186.1,271.7 						"/>
						<polygon class="st10" points="160.6,271.7 143.5,271.7 152.1,258 160.6,244.2 169.2,258 177.7,271.7 						"/>
						<polygon class="st3" points="155.1,253.1 160.6,257.3 166.2,253.1 160.6,244.2 						"/>
						<polygon class="st3" points="172.5,256.5 177.2,260.2 181.9,256.5 177.2,248.6 						"/>
					</g>
					<g>
						<rect x="296.8" y="271.7" class="st7" width="57.4" height="41.1"/>
						<polygon class="st14" points="354.3,302 351.5,297.3 342.2,281.7 323.7,312.9 354.3,312.9 						"/>
						<polygon class="st10" points="319.9,312.9 296.8,312.9 308.3,294.3 319.9,275.7 331.4,294.3 342.9,312.9 						"/>
						<polygon class="st3" points="312.4,287.7 319.9,293.3 327.4,287.7 319.9,275.7 						"/>
						<polygon class="st3" points="335.9,292.3 342.2,297.3 348.5,292.3 342.2,281.7 						"/>
					</g>
					<g>
						<path class="st13" d="M366.2,208.3v8.3H134.1v-8.3c0-1.5,1.2-2.7,2.7-2.7h226.8C365,205.6,366.2,206.8,366.2,208.3z"/>
						<path class="st6" d="M312.3,212.2H184.8c-0.9,0-1.6-0.7-1.6-1.6v-0.4c0-0.9,0.7-1.6,1.6-1.6h127.5c0.9,0,1.6,0.7,1.6,1.6v0.4
							C313.9,211.4,313.2,212.2,312.3,212.2z"/>
						<g>
							<path class="st5" d="M332.8,210.4c0,1-0.8,1.9-1.9,1.9c-1,0-1.9-0.8-1.9-1.9c0-1,0.8-1.9,1.9-1.9
								C332,208.5,332.8,209.4,332.8,210.4z"/>
							<path class="st5" d="M342.2,210.4c0,1-0.8,1.9-1.9,1.9c-1,0-1.9-0.8-1.9-1.9c0-1,0.8-1.9,1.9-1.9
								C341.3,208.5,342.2,209.4,342.2,210.4z"/>
							<path class="st5" d="M350.5,210.4c0,1-0.8,1.9-1.9,1.9c-1,0-1.9-0.8-1.9-1.9c0-1,0.8-1.9,1.9-1.9
								C349.7,208.5,350.5,209.4,350.5,210.4z"/>
						</g>
					</g>
				</g>
				<path class="st6" d="M253.5,200.1c0,1.3-1,2.3-2.3,2.3c-1.3,0-2.3-1-2.3-2.3c0-1.3,1-2.3,2.3-2.3
					C252.4,197.7,253.5,198.8,253.5,200.1z"/>
				<path class="st15" d="M366.2,208.3v109.3c0,1.5-1.2,2.7-2.7,2.7H136.8c-0.6,0-1.1-0.2-1.5-0.5l230.5-113
					C366.1,207.2,366.2,207.7,366.2,208.3z"/>
				<path class="st1" d="M268.8,341.8v0.3c0,1.3-1,2.3-2.3,2.3h-32.7c-1.3,0-2.3-1-2.3-2.3v-0.3H268.8z"/>
			</g>
			<g>
				<path class="st1" d="M374.7,240.2v9l-2.7,1.4c0,0-2.6,4.8-6.9,6c-1,0.3-1.8,0.4-2.5,0.4c0,0,0,0,0,0c-5.9,0.4-5.2-5.3-13.9,1.3
					c0,0,0,0,0,0c0.1-0.3,2.6-8.3,9.2-12.5c2.7-1.7,6.2-2.8,10.4-2.3L374.7,240.2z"/>
				<g>
					<g>
						<g>
							<path class="st4" d="M431.8,216l-49.4,26l-1.7-3.3l-1.9-3.7l49.4-26c1.9-1,4.3-0.3,5.4,1.7c0,0.1,0.1,0.1,0.1,0.2
								C434.5,212.7,433.7,215,431.8,216z"/>
						</g>
						<polygon class="st5" points="382.4,242 372,247.6 370.2,244.2 368.3,240.5 378.7,235 380.7,238.7 						"/>
						<path class="st6" d="M372,247.6c0,0-2.6,4.8-6.9,6c-1,0.3-1.8,0.4-2.5,0.4c0,0,0,0,0,0c-5.9,0.4-5.2-5.3-13.9,1.3c0,0,0,0,0,0
							c0.1-0.3,2.6-8.3,9.2-12.5c2.7-1.7,6.2-2.8,10.4-2.3l2,3.7L372,247.6z"/>
						<path class="st9" d="M362.6,254c-5.9,0.4-5.2-5.3-13.9,1.3c0,0,0,0,0,0c0.1-0.3,2.6-8.3,9.2-12.5c3,0.3,3,5.2,2.6,7.4
							c0,0,0,0.1,0,0.1C359.8,252.8,362.5,254,362.6,254z"/>
						<path class="st1" d="M431.8,216l-49.4,26l-10.5,5.5l-1.7-3.3l10.5-5.5l52.9-27.9C434.5,212.7,433.7,215,431.8,216z"/>
					</g>
					<path class="st1" d="M372,247.6c0,0-2.6,4.8-6.9,6c-1,0.3-1.8,0.4-2.5,0.4c0,0,0,0,0,0c-5.9,0.4-5.2-5.3-13.9,1.3c0,0,0,0,0,0
						c0.1-0.2,3.1-4.8,6.4-5.3c1.2-0.2,3.1,0.1,5.3,0.2c4,0.2,8.6-0.3,9.8-6v0L372,247.6z"/>
				</g>
			</g>
			<g>
				<path class="st1" d="M180.9,332.7l-16.5,19.7h12l5.7-6.8v6.8h9.2v-32.1L180.9,332.7z"/>
				<g>
					<g>
						<path class="st16" d="M126.1,393.7h61.3v-73.4l-58.6,70.1L126.1,393.7z M178.3,384.5h-32.5l32.5-38.8V384.5z"/>
						<g>
							<rect x="183.5" y="334.5" class="st17" width="3.1" height="0.7"/>
							<rect x="183.5" y="338.7" class="st17" width="3.1" height="0.7"/>
							<rect x="183.5" y="342.8" class="st17" width="3.1" height="0.7"/>
							<rect x="183.5" y="347" class="st17" width="3.1" height="0.7"/>
							<rect x="183.5" y="351.2" class="st17" width="3.1" height="0.7"/>
							<rect x="183.5" y="355.4" class="st17" width="3.1" height="0.7"/>
							<rect x="183.5" y="359.6" class="st17" width="3.1" height="0.7"/>
							<rect x="183.5" y="363.7" class="st17" width="3.1" height="0.7"/>
							<rect x="183.5" y="367.9" class="st17" width="3.1" height="0.7"/>
							<rect x="183.5" y="372.1" class="st17" width="3.1" height="0.7"/>
							<rect x="183.5" y="376.3" class="st17" width="3.1" height="0.7"/>
							<rect x="183.5" y="380.4" class="st17" width="3.1" height="0.7"/>
							<rect x="183.5" y="384.6" class="st17" width="3.1" height="0.7"/>
							<rect x="183.5" y="388.8" class="st17" width="3.1" height="0.7"/>
						</g>
					</g>
					<polygon class="st18" points="126.1,393.7 187.5,393.7 187.5,390.3 128.9,390.3 					"/>
				</g>
			</g>
			<g>
				<path class="st16" d="M374.7,249.4v144.3h16.9V249.4H374.7z M383.1,259c-1.8,0-3.3-1.5-3.3-3.3c0-1.8,1.5-3.3,3.3-3.3
					c1.8,0,3.3,1.5,3.3,3.3C386.4,257.5,385,259,383.1,259z"/>
				<g>
					<g>
						<rect x="376.3" y="263" class="st17" width="3.7" height="0.9"/>
						<rect x="376.3" y="268" class="st17" width="3.7" height="0.9"/>
						<rect x="376.3" y="273" class="st17" width="3.7" height="0.9"/>
						<rect x="376.3" y="277.9" class="st17" width="3.7" height="0.9"/>
						<rect x="376.3" y="282.9" class="st17" width="3.7" height="0.9"/>
						<rect x="376.3" y="287.9" class="st17" width="3.7" height="0.9"/>
						<rect x="376.3" y="292.8" class="st17" width="3.7" height="0.9"/>
						<rect x="376.3" y="297.8" class="st17" width="3.7" height="0.9"/>
						<rect x="376.3" y="302.7" class="st17" width="3.7" height="0.9"/>
						<rect x="376.3" y="307.7" class="st17" width="3.7" height="0.9"/>
						<rect x="376.3" y="312.7" class="st17" width="3.7" height="0.9"/>
						<rect x="376.3" y="317.6" class="st17" width="3.7" height="0.9"/>
						<rect x="376.3" y="322.6" class="st17" width="3.7" height="0.9"/>
						<rect x="376.3" y="327.6" class="st17" width="3.7" height="0.9"/>
					</g>
					<g>
						<rect x="376.3" y="332" class="st17" width="3.7" height="0.9"/>
						<rect x="376.3" y="337" class="st17" width="3.7" height="0.9"/>
						<rect x="376.3" y="341.9" class="st17" width="3.7" height="0.9"/>
						<rect x="376.3" y="346.9" class="st17" width="3.7" height="0.9"/>
						<rect x="376.3" y="351.8" class="st17" width="3.7" height="0.9"/>
						<rect x="376.3" y="356.8" class="st17" width="3.7" height="0.9"/>
						<rect x="376.3" y="361.8" class="st17" width="3.7" height="0.9"/>
						<rect x="376.3" y="366.7" class="st17" width="3.7" height="0.9"/>
						<rect x="376.3" y="371.7" class="st17" width="3.7" height="0.9"/>
						<rect x="376.3" y="376.7" class="st17" width="3.7" height="0.9"/>
						<rect x="376.3" y="381.6" class="st17" width="3.7" height="0.9"/>
						<rect x="376.3" y="386.6" class="st17" width="3.7" height="0.9"/>
					</g>
				</g>
				<rect x="374.7" y="389.8" class="st18" width="16.9" height="3.9"/>
				<path class="st18" d="M383.1,251.5c-2.3,0-4.2,1.9-4.2,4.2c0,2.3,1.9,4.2,4.2,4.2c2.3,0,4.2-1.9,4.2-4.2
					C387.4,253.4,385.5,251.5,383.1,251.5z M383.1,259c-1.8,0-3.3-1.5-3.3-3.3c0-1.8,1.5-3.3,3.3-3.3c1.8,0,3.3,1.5,3.3,3.3
					C386.4,257.5,385,259,383.1,259z"/>
			</g>
			<g>
				<path class="st18" d="M462,389.2h-64.1v-6.9c0-12,9.7-21.7,21.7-21.7h20.8c12,0,21.7,9.7,21.7,21.7V389.2z"/>
				<g>
					<path class="st5" d="M453.2,385.2h-46.5c-2.6,0-4.6-2.1-4.6-4.6v-98.1c0-2.6,2.1-4.6,4.6-4.6h46.5c2.6,0,4.6,2.1,4.6,4.6v98.1
						C457.8,383.1,455.7,385.2,453.2,385.2z"/>
					<path class="st6" d="M452.8,285.4v92.3c0,1.4-1.2,2.6-2.6,2.6h-40.7c-0.5,0-1-0.2-1.5-0.5c-0.7-0.5-1.1-1.2-1.1-2.1v-92.3
						c0-1.4,1.2-2.6,2.6-2.6h6c1,0,1.8,0.7,2,1.7c0,0,0,0,0,0c0.3,1.3,1.5,2.2,2.8,2.2h19.2c0.8,0,1.4-0.3,2-0.8
						c0.5-0.5,0.8-1.2,0.8-1.9v0c0-0.7,0.5-1.2,1.1-1.2h6.8c0.9,0,1.8,0.5,2.2,1.3C452.7,284.4,452.8,284.9,452.8,285.4z"/>
					<g>
						<rect x="412" y="291.7" class="st7" width="35.3" height="7.7"/>
						<g>
							<g>
								<rect x="412" y="323.1" class="st7" width="35.3" height="25.3"/>
								<polygon class="st14" points="447.3,341.7 445.6,338.8 439.9,329.2 428.5,348.4 447.3,348.4 								"/>
								<polygon class="st10" points="426.2,348.4 412,348.4 419.1,337 426.2,325.5 433.3,337 440.4,348.4 								"/>
								<polygon class="st3" points="421.6,332.9 426.2,336.4 430.8,332.9 426.2,325.5 								"/>
								<polygon class="st3" points="436,335.8 439.9,338.8 443.8,335.8 439.9,329.2 								"/>
							</g>
							<rect x="412" y="303.5" class="st9" width="35.3" height="3.9"/>
							<rect x="412" y="309.9" class="st9" width="35.3" height="3.9"/>
							<rect x="412" y="316.4" class="st9" width="35.3" height="3.9"/>
							<rect x="412" y="351.9" class="st9" width="15.8" height="3.9"/>
							<rect x="412" y="358.7" class="st9" width="15.8" height="3.9"/>
							<g>
								<rect x="431.4" y="351.9" class="st9" width="15.9" height="3.9"/>
								<rect x="431.4" y="358.7" class="st9" width="15.9" height="3.9"/>
								<rect x="431.4" y="365.4" class="st9" width="15.9" height="3.9"/>
								<rect x="412" y="365.4" class="st9" width="15.8" height="3.9"/>
							</g>
						</g>
					</g>
					<path class="st5" d="M447,285.3c0,0.5-0.4,0.9-0.9,0.9c-0.5,0-0.9-0.4-0.9-0.9c0-0.5,0.4-0.9,0.9-0.9
						C446.6,284.4,447,284.8,447,285.3z"/>
					<circle class="st5" cx="449.4" cy="285.3" r="0.9"/>
					<path class="st15" d="M452.8,285.4v92.3c0,1.4-1.2,2.6-2.6,2.6h-40.7c-0.5,0-1-0.2-1.5-0.5l44.4-95.8
						C452.7,284.4,452.8,284.9,452.8,285.4z"/>
				</g>
				<path class="st16" d="M462,393.7h-64.1v-2.2c0-9.8,8-17.8,17.8-17.8h28.5c9.8,0,17.8,8,17.8,17.8V393.7z"/>
				<rect x="397.9" y="389.2" class="st18" width="64.1" height="4.5"/>
			</g>
			<g>
				<path class="st1" d="M157.4,266c-1.5,1.5-3.2,2.8-4.9,3.8c-7.4,4.3-16.5,4.3-23.9,0c-0.5-0.3-1.1-0.6-1.6-1l-1.4,1.4l0,0v-39.7
					c9.4-7.5,23.1-7,31.8,1.7C166.7,241.7,166.7,256.7,157.4,266z"/>
				<g>
					
						<rect x="99.6" y="255.4" transform="matrix(0.7071 0.7071 -0.7071 0.7071 227.8563 8.2433)" class="st5" width="8.7" height="47.5"/>
					
						<rect x="113.5" y="261" transform="matrix(0.7071 -0.7071 0.7071 0.7071 -153.1687 160.9944)" class="st9" width="8.6" height="8.7"/>
					
						<rect x="86.7" y="290.4" transform="matrix(0.7071 -0.7071 0.7071 0.7071 -182.5727 148.8172)" class="st9" width="3.3" height="8.7"/>
					
						<rect x="86.9" y="291" transform="matrix(0.7071 -0.7071 0.7071 0.7071 -183.1585 148.5606)" class="st1" width="1.7" height="8.7"/>
					<path class="st1" d="M123.9,265.4l-2.2,2.2c-1.2-0.8-2.3-1.7-3.4-2.8c-1.1-1-2-2.2-2.8-3.4l2.2-2.2L123.9,265.4z"/>
					<circle class="st5" cx="136.7" cy="246.4" r="23.8"/>
					<path class="st7" d="M154.4,247c0,0.4,0,0.8-0.1,1.2c-0.1,1.3-0.4,2.6-0.9,3.9c-0.3,0.9-0.7,1.9-1.2,2.8
						c-0.1,0.2-0.2,0.3-0.3,0.5c-0.6,1.1-1.4,2.1-2.3,3.1c-0.2,0.2-0.3,0.3-0.5,0.5c-0.4,0.4-0.9,0.8-1.3,1.2
						c-0.3,0.3-0.7,0.5-1,0.8c-0.1,0.1-0.2,0.1-0.2,0.2c-1.1,0.7-2.2,1.3-3.4,1.8c-0.6,0.2-1.2,0.5-1.9,0.6
						c-0.9,0.3-1.9,0.4-2.8,0.5c-4.6,0.5-9.3-0.8-13-3.9c-0.5-0.4-0.9-0.8-1.3-1.2c-0.2-0.2-0.3-0.3-0.5-0.5c-1-1.1-1.9-2.3-2.6-3.6
						c0,0,0,0,0,0c-0.5-0.9-0.9-1.8-1.2-2.7c-0.4-1.1-0.6-2.1-0.8-3.2c-0.1-0.4-0.1-0.7-0.1-1.1c0-0.3,0-0.5,0-0.8V247
						c0-1,0-2,0.2-2.9c0.1-0.7,0.2-1.5,0.4-2.2c0-0.1,0-0.1,0.1-0.2c0.1-0.4,0.2-0.7,0.3-1.1c0.3-1,0.8-2,1.3-2.9
						c0.8-1.3,1.7-2.6,2.9-3.8c0,0,0.1-0.1,0.1-0.1c0.2-0.2,0.4-0.4,0.6-0.6c1.7-1.5,3.7-2.7,5.8-3.4c6-2.2,12.9-1,17.8,3.4
						c0.2,0.2,0.5,0.4,0.7,0.7c1.1,1.1,2.1,2.4,2.9,3.8c0.1,0.2,0.2,0.4,0.3,0.6c0.6,1.2,1.1,2.4,1.4,3.6c0.2,0.7,0.3,1.5,0.4,2.2
						C154.4,245,154.5,246,154.4,247z"/>
					<path class="st15" d="M154.4,247c0,0.4,0,0.8-0.1,1.2c-0.1,1.3-0.4,2.6-0.9,3.9c-0.3,0.9-0.7,1.9-1.2,2.8
						c-0.1,0.2-0.2,0.3-0.3,0.5c-0.6,1.1-1.4,2.1-2.3,3.1c-0.2,0.2-0.3,0.3-0.5,0.5c-0.4,0.4-0.9,0.8-1.3,1.2
						c-0.3,0.3-0.7,0.5-1,0.8c-0.1,0.1-0.2,0.1-0.2,0.2c-1.1,0.7-2.2,1.3-3.4,1.8c-0.6,0.2-1.2,0.5-1.9,0.6
						c-0.9,0.3-1.9,0.4-2.8,0.5c-4.6,0.5-9.3-0.8-13-3.9c-0.5-0.4-0.9-0.8-1.3-1.2c-0.2-0.2-0.3-0.3-0.5-0.5c-1-1.1-1.9-2.3-2.6-3.6
						c0,0,0,0,0,0l31.3-16.7c0.6,1.2,1.1,2.4,1.4,3.6c0.2,0.7,0.3,1.5,0.4,2.2C154.4,245,154.5,246,154.4,247z"/>
				</g>
			</g>
			<g>
				<path class="st1" d="M345.9,352.4h-9.3l0.9-2.8l0,0l0.6-1.8c0.6-1.7,2.1-2.5,3.6-2.3v0c1.1,0.2,2.2,0.9,2.6,2.3l0.6,1.8l0,0
					L345.9,352.4z"/>
				<g>
					<path class="st19" d="M357.9,393.5c-0.4,0.2-0.8,0.3-1.2,0.3h-27.5c-2.3,0-3.9-2.4-3.1-4.7l1.3-3.7l0-0.1l1.5-4.5l0.1-0.2
						l0.7-2.1l0.6-1.7l1.6-4.7l1-3l0.3-0.8l0.5-1.5l0.7-2.2l0.4-1.1l1.3-3.9l1.5-4.5l0.1-0.2l1.5-4.3l0,0l0.6-1.8
						c0.6-1.7,2.1-2.5,3.6-2.3v0c1.1,0.2,2.2,0.9,2.6,2.3l0.6,1.8l0,0l1.5,4.3l0.1,0.2l1.5,4.5l1.3,3.9l0.4,1.1l0.7,2.2l0.5,1.5
						l0.3,0.8l1,3l1.6,4.7l0.6,1.7l0.7,2.1l0.1,0.2l1.5,4.5l0,0.1l1.3,3.7C360.4,390.9,359.5,392.8,357.9,393.5z"/>
					<path class="st20" d="M369.4,393.7h-52.9c0-1.8,0.6-3.5,1.5-4.8c0.3-0.4,0.6-0.8,1-1.2c1.5-1.5,3.6-2.5,6-2.5h36
						c2.9,0,5.4,1.4,7,3.6C368.9,390.3,369.4,391.9,369.4,393.7z"/>
					<polygon class="st6" points="348.2,355 337.7,355 337.8,354.8 339.2,350.5 346.7,350.5 348.1,354.8 					"/>
					<polygon class="st6" points="352.9,368.9 332.9,368.9 333.2,368.1 333.7,366.6 334.5,364.4 351.4,364.4 352.2,366.6 
						352.7,368.1 					"/>
					<polygon class="st6" points="358.5,385.3 327.4,385.3 328.9,380.8 357,380.8 					"/>
					<polygon class="st1" points="358.5,385.3 327.4,385.3 328.9,380.8 329,380.6 329.7,378.4 356.2,378.4 356.9,380.6 357,380.8 
											"/>
					<path class="st1" d="M369.4,393.7h-52.9c0-1.8,0.6-3.5,1.5-4.8h49.9C368.9,390.3,369.4,391.9,369.4,393.7z"/>
				</g>
			</g>
		</g>
	</g>
	<g>
		<g>
			<path class="st6" d="M111.7,43.2H105v-4h17.9v4h-6.7v20h-4.5V43.2z"/>
			<path class="st6" d="M140,63.2V53.1h-8.9v10.1h-4.5v-24h4.5v9.9h8.9v-9.9h4.5v24H140z"/>
			<path class="st6" d="M154.6,63.2h-4.5v-24h4.5V63.2z"/>
			<path class="st6" d="M160.2,39.2h14.7v4h-10.2V49h9.4v4h-9.4v6.2h10.2v4h-14.7V39.2z M163.2,35.7c1.6-1,3.1-2.1,4.6-3.3
				c0.9,0.7,1.7,1.2,2.3,1.7c0.7,0.5,1.5,1.1,2.3,1.6l-1.2,2c-1.1-0.5-2.2-1.1-3.4-1.8c-1.1,0.7-2.2,1.2-3.3,1.8L163.2,35.7z
				 M163.6,30.6c1-0.6,1.9-1.2,2.5-1.6c0.9-0.6,1.6-1.1,2.3-1.6l1.7,2.7c-1.4,1-3,2-4.9,3L163.6,30.6z"/>
			<path class="st6" d="M184.4,43.2h-6.7v-4h17.9v4H189v20h-4.5V43.2z"/>
			<path class="st6" d="M211.3,63.2h-4.5v-24h4.5V63.2z M217,51.1l8.1,12.1h-5.2L212,51.1l7.4-11.8h5.2L217,51.1z"/>
			<path class="st6" d="M228.8,39.2h14.7v4h-10.2V49h9.4v4h-9.4v6.2h10.2v4h-14.7V39.2z M231.8,35.7c1.6-1,3.1-2.1,4.6-3.3
				c0.9,0.7,1.7,1.2,2.3,1.7c0.7,0.5,1.5,1.1,2.3,1.6l-1.2,2c-1.1-0.5-2.2-1.1-3.4-1.8c-1.1,0.7-2.2,1.2-3.3,1.8L231.8,35.7z
				 M232.3,30.6c1-0.6,1.9-1.2,2.5-1.6c0.9-0.6,1.6-1.1,2.3-1.6l1.7,2.7c-1.4,1-3,2-4.9,3L232.3,30.6z"/>
			<path class="st6" d="M277.4,57.8l4.6-18.6h4.5l-5.9,24h-6.1L270,43.9l-4.4,19.3h-6.1l-5.9-24h4.5l4.6,18.6l4.4-18.6h6L277.4,57.8
				z"/>
			<path class="st6" d="M289.7,39.2h14.7v4h-10.2V49h9.4v4h-9.4v6.2h10.2v4h-14.7V39.2z"/>
			<path class="st6" d="M309.1,63.2v-24h9.4c4.2,0,6.4,1.7,6.4,5.1v2.5c0,1.8-0.9,3.1-2.7,3.9c2.3,0.5,3.5,2,3.5,4.4v2.6
				c0,3.7-2.2,5.5-6.6,5.5H309.1z M320.3,44.9c0-1.3-0.8-2-2.4-2h-4.4v6.3h4.3c1.6,0,2.4-0.7,2.4-2.2V44.9z M321.2,55.3
				c0-1.6-0.8-2.4-2.5-2.4h-5v6.6h4.6c1.9,0,2.9-0.8,2.9-2.3V55.3z"/>
			<path class="st6" d="M343.2,61.8c-1.2,1.1-3.5,1.7-6.9,1.7c-3,0-5.5-0.5-7.5-1.4l0.8-3.6c1.2,0.4,2.3,0.6,3.3,0.8
				c1.2,0.2,2.3,0.3,3.4,0.3c1.6,0,2.6-0.2,3.1-0.6c0.4-0.4,0.7-1.2,0.7-2.4c0-1.3-0.2-2.2-0.6-2.5c-0.4-0.4-1.7-0.8-3.8-1.3
				c-2.9-0.6-4.7-1.4-5.5-2.3c-0.7-0.9-1.1-2.6-1.1-5.2c0-2.3,0.6-3.9,1.7-4.9c1.3-1.1,3.4-1.6,6.3-1.6c2.3,0,4.7,0.3,7,0.8
				l-0.5,3.8c-2.2-0.5-4.3-0.7-6.4-0.7c-1.5,0-2.5,0.2-2.9,0.6c-0.4,0.4-0.7,1.1-0.7,2.1c0,1.4,0.2,2.2,0.5,2.6
				c0.4,0.3,1.6,0.7,3.7,1.2c3.1,0.8,5,1.6,5.8,2.5c0.6,0.8,1,2.4,1,4.9C344.8,59.1,344.3,60.8,343.2,61.8z"/>
			<path class="st6" d="M354,63.2h-4.5v-24h4.5V63.2z"/>
			<path class="st6" d="M364.4,43.2h-6.7v-4h17.9v4H369v20h-4.5V43.2z"/>
			<path class="st6" d="M379.3,39.2H394v4h-10.2V49h9.4v4h-9.4v6.2H394v4h-14.7V39.2z"/>
			<path class="st6" d="M150.7,83.5c0-3.6,2.2-5.5,6.7-5.5c1.8,0,3.5,0.2,5.1,0.6l-0.4,3.1c-1.7-0.3-3.3-0.5-4.6-0.5
				c-2.2,0-3.3,1-3.3,2.9v7.2c0,1.9,1.1,2.9,3.3,2.9c1.3,0,2.9-0.2,4.6-0.5l0.4,3.1c-1.6,0.4-3.3,0.6-5.1,0.6
				c-4.5,0-6.7-1.8-6.7-5.5V83.5z"/>
			<path class="st6" d="M176.5,97.2v-7.9h-7v7.9H166V78.3h3.6v7.8h7v-7.8h3.6v18.8H176.5z"/>
			<path class="st6" d="M198.1,78.3v13.4c0,1.7-0.5,3-1.5,4c-1.2,1.2-3,1.8-5.5,1.8c-2.5,0-4.3-0.6-5.5-1.8c-1-1-1.5-2.3-1.5-4V78.3
				h3.6v13.1c0,1.9,1.1,2.9,3.4,2.9c2.3,0,3.4-1,3.4-2.9V78.3H198.1z"/>
			<path class="st6" d="M212.2,78.3h3.8l-6.1,13.4v5.5h-3.6v-5.5l-6.1-13.4h3.8l4.1,9.5L212.2,78.3z"/>
			<path class="st6" d="M218.2,78.3h11.6v3.1h-8V86h7.4v3.1h-7.4V94h8v3.1h-11.6V78.3z M220.6,75.5c1.2-0.8,2.4-1.7,3.6-2.6
				c0.7,0.5,1.3,1,1.8,1.3c0.6,0.4,1.2,0.8,1.8,1.3l-1,1.6c-0.9-0.4-1.7-0.9-2.6-1.4c-0.9,0.5-1.8,1-2.6,1.4L220.6,75.5z"/>
			<path class="st6" d="M236.9,82.9v14.3h-3.5V78.3h4.8l7.2,14.3V78.3h3.5v18.8h-4.8L236.9,82.9z"/>
			<path class="st6" d="M262.5,82.9v14.3H259V78.3h4.8l7.2,14.3V78.3h3.5v18.8h-4.8L262.5,82.9z"/>
			<path class="st6" d="M281.8,91.3c0,1.9,1.1,2.9,3.3,2.9c0.9,0,1.9-0.1,2.9-0.2v-5.7h3.4v8.3c-2,0.6-4.1,0.8-6.3,0.8
				c-4.6,0-6.8-1.9-6.8-5.7v-8c0-3.8,2.4-5.7,7.2-5.7c0.9,0,1.7,0,2.6,0.1c1.1,0.1,2,0.3,2.8,0.5l-0.4,3.1c-1.6-0.3-3.4-0.5-5.3-0.5
				c-2.2,0-3.3,1-3.3,2.9V91.3z"/>
			<path class="st6" d="M305.7,97.2v-7.9h-7v7.9h-3.6V78.3h3.6v7.8h7v-7.8h3.6v18.8H305.7z"/>
			<path class="st6" d="M317.2,97.2h-3.6V78.3h3.6V97.2z"/>
			<path class="st6" d="M321.6,78.3h11.6v3.1h-8V86h7.4v3.1h-7.4V94h8v3.1h-11.6V78.3z M323.9,75.5c1.2-0.8,2.4-1.7,3.6-2.6
				c0.7,0.5,1.3,1,1.8,1.3c0.6,0.4,1.2,0.8,1.8,1.3l-1,1.6c-0.9-0.4-1.7-0.9-2.6-1.4c-0.9,0.5-1.8,1-2.6,1.4L323.9,75.5z
				 M325.9,98.6h2.9v2.7h-2.9V98.6z"/>
			<path class="st6" d="M336.8,78.3h7.4c2.1,0,3.7,0.4,4.6,1.3c0.9,0.8,1.4,2.1,1.4,3.8V86c0,3.4-2,5.1-6.1,5.1h-3.6v6.1h-3.6V78.3z
				 M346.6,83.7c0-1.5-0.9-2.2-2.6-2.2h-3.6v6.5h3.6c1.7,0,2.6-0.8,2.6-2.3V83.7z"/>
		</g>
	</g>
</g>
<g id="DESIGNED_BY_FREEPIK">
	<g>
		<g>
			<path class="st6" d="M170.1,465.1h7.1v2.9h-7.1V465.1z"/>
			<path class="st6" d="M190.8,458.8h-5.2v-3.1h14v3.1h-5.2v15.7h-3.6V458.8z"/>
			<path class="st6" d="M203.3,460.7v9.6c0,0.7,0.4,1.1,1.1,1.1c0.9,0,2.1-0.4,3.6-1.2v-9.5h3.4v13.7h-2.6l-0.3-1.2
				c-2,1-3.8,1.4-5.5,1.4c-2.1,0-3.1-1.3-3.1-4v-10H203.3z"/>
			<path class="st6" d="M222.4,474.4l-1.8,5.5h-3.3l1.7-5.5h-1.2l-4.3-13.7h3.5l3.1,10.4l3.2-10.4h3.5L222.4,474.4z"/>
			<path class="st6" d="M231.6,469.6c0,1.5,0.9,2.3,2.7,2.3c1.4,0,2.8-0.2,4.2-0.6l0.5,2.6c-1.5,0.6-3.2,0.9-5,0.9
				c-2.1,0-3.6-0.5-4.5-1.4c-0.9-0.9-1.3-2.2-1.3-3.9v-3.6c0-1.6,0.4-2.9,1.2-3.8c0.9-1.1,2.4-1.6,4.5-1.6c2,0,3.5,0.6,4.3,1.7
				c0.7,0.9,1,2.2,1,3.9v2.9h-7.6V469.6z M229.9,457.9c1.3-0.9,2.6-1.9,4-3.1l2,1.6c0.7,0.6,1.4,1.1,2,1.5l-1.1,1.5
				c-0.6-0.3-1.1-0.7-1.5-0.9l-1.3-0.9c-0.9,0.6-1.8,1.2-2.8,1.8L229.9,457.9z M231.6,466.1h4.4v-0.7c0-1.5-0.7-2.2-2.1-2.2
				c-1.5,0-2.3,0.7-2.3,2.2V466.1z"/>
			<path class="st6" d="M250.5,474.4v-9.6c0-0.7-0.4-1.1-1.1-1.1c-0.9,0-2.1,0.4-3.6,1.2v9.5h-3.4v-13.7h2.6l0.3,1.2
				c1.9-1,3.8-1.4,5.5-1.4c2.1,0,3.1,1.4,3.1,4.1v10H250.5z"/>
			<path class="st6" d="M267.6,458.8h-5.2v-3.1h14v3.1h-5.2v15.7h-3.6V458.8z"/>
			<path class="st6" d="M285.7,463.6c-1.1,0.5-2.3,1.2-3.6,2v8.9h-3.4v-13.7h2.9l0.2,1.5c0.5-0.3,1-0.7,1.6-1c0.8-0.4,1.4-0.7,2-0.8
				L285.7,463.6z"/>
			<path class="st6" d="M298.1,474.4h-2.8l-0.2-0.9c-1.2,0.8-2.6,1.2-4.1,1.2c-1.2,0-2.1-0.4-2.7-1.1c-0.6-0.7-0.9-1.7-0.9-2.9
				c0-2.6,1.3-3.9,4-3.9h3.3v-1.4c0-0.8-0.2-1.3-0.5-1.6c-0.4-0.3-1.1-0.5-2.1-0.5c-1.2,0-2.5,0.1-3.8,0.4l-0.4-2.6
				c1.4-0.4,3-0.6,4.7-0.6c2.1,0,3.6,0.4,4.4,1.2c0.8,0.7,1.2,2,1.2,3.8V474.4z M289.2,457.9c1.3-0.9,2.6-1.9,4-3.1l2,1.6
				c0.7,0.6,1.4,1.1,2,1.5l-1.1,1.5c-0.6-0.3-1.1-0.7-1.5-0.9l-1.3-0.9c-0.9,0.6-1.8,1.2-2.8,1.8L289.2,457.9z M294.7,469.2h-2.5
				c-1,0-1.4,0.5-1.4,1.3c0,0.9,0.5,1.4,1.4,1.4c0.9,0,1.8-0.2,2.6-0.7V469.2z M295.6,455.5c-0.7-0.4-1.4-0.8-2.1-1.2
				c-0.6-0.4-1.3-0.8-2.1-1.4l1.3-2.1c0.7,0.5,1.4,1,2.1,1.5c0.6,0.4,1.3,0.8,2,1.3L295.6,455.5z"/>
			<path class="st6" d="M309.9,474.4v-9.6c0-0.7-0.4-1.1-1.1-1.1c-0.9,0-2.1,0.4-3.6,1.2v9.5h-3.4v-13.7h2.6l0.3,1.2
				c1.9-1,3.8-1.4,5.5-1.4c2.1,0,3.1,1.4,3.1,4.1v10H309.9z"/>
			<path class="st6" d="M322.8,465.1h7.1v2.9h-7.1V465.1z"/>
		</g>
	</g>
</g>
</svg>
