<?xml version="1.0" encoding="utf-8"?>
<!-- Generator: Adobe Illustrator 24.0.0, SVG Export Plug-In . SVG Version: 6.00 Build 0)  -->
<svg version="1.1" id="Camada_1" xmlns="http://www.w3.org/2000/svg" xmlns:xlink="http://www.w3.org/1999/xlink" x="0px" y="0px"
	 viewBox="0 0 500 500" style="enable-background:new 0 0 500 500;" xml:space="preserve">
<style type="text/css">
	.st0{fill:#FFFFFF;}
	.st1{fill:#CC0000;}
	.st2{fill:#FBBD04;}
	.st3{fill:#438EDC;}
	.st4{fill:#34A952;}
	.st5{fill:#7F7F7F;}
	.st6{fill:#C10000;}
</style>
<g>
	<g>
		<rect x="5" y="5" class="st0" width="490" height="490"/>
		<path class="st1" d="M490,10v480H10V10H490 M500,0H0v500h500V0L500,0z"/>
	</g>
	<g>
		<g>
			<g>
				<path class="st2" d="M116.1,315.8L116.1,315.8c-25.7-14.8-34.6-48-19.7-73.7L202.9,57.4c14.8-25.7,48-34.6,73.7-19.7l0,0
					c25.7,14.8,34.6,48,19.7,73.7L189.7,296C174.9,321.7,141.7,330.6,116.1,315.8z"/>
				<path class="st3" d="M383.8,315L383.8,315c-25.7,14.8-58.8,5.9-73.7-19.7L203.5,110.6c-14.8-25.7-5.9-58.8,19.7-73.7l0,0
					c25.7-14.8,58.8-5.9,73.7,19.7l106.6,184.7C418.4,267,409.5,300.2,383.8,315z"/>
				<circle class="st4" cx="143.8" cy="268.3" r="54.7"/>
			</g>
			<g>
				<path id="path4243" class="st5" d="M234,385.6c4-1.2,6.4-4.7,6.4-9.4c0-2.9-0.8-5.2-2.4-6.9c-4.7-5-12.6-2.8-14.6,4
					c-0.8,2.8-0.8,3,0,6c0.8,2.7,3.1,5.5,5,5.9c0.6,0.1,1.4,0.4,1.8,0.6C231.5,386.3,231.6,386.3,234,385.6L234,385.6z M226.7,407.6
					c-4.2-1.4-8.1-4.7-10.1-8.6c-0.6-1.1-0.3-1.4,3.5-2.8c2.7-1,3.5-1.1,3.5-0.5c0,1,2.5,3.6,4.3,4.4c3.5,1.6,8.1,0.7,10.3-2.2
					c1-1.3,1.9-4.8,1.7-6.8l-0.1-1.1l-1.7,1.2c-2.4,1.6-6.3,2.4-9.4,1.8c-3.8-0.7-6.2-2-8.8-4.6c-2.7-2.8-3.9-5-4.7-9
					c-1.7-8.1,3.5-16.8,11.5-19.4c4.1-1.3,9.8-0.5,12.2,1.8l0.9,0.9l0.1-1.2l0.1-1.2h3.7h3.7l0.1,16.4c0.1,17.2-0.1,19.6-1.8,23.2
					c-1.8,3.6-5.2,6.5-9.4,7.8C233.8,408.5,229.4,408.5,226.7,407.6z"/>
				<path id="path4239" class="st5" d="M164,384.3c3.2-2.2,4.7-7,3.6-11.1c-0.9-3.4-4.9-6.6-8.2-6.6c-5.4,0-9.3,4-9.4,9.5
					c0,4.4,2.7,8.5,6.3,9.4C158.6,386.1,162.2,385.5,164,384.3z M155.7,392.9c-6.5-1.2-11.2-5.4-13.4-12.1c-1-3.1-0.7-8.4,0.7-11.4
					c3-6.5,8.8-10.2,15.8-10.2c13.4,0,21.2,13.6,15,25.7c-1.8,3.5-6.9,7.2-11,7.9C159.3,393.5,158.8,393.5,155.7,392.9z"/>
				<path id="path4235" class="st5" d="M271.5,374.6c1.5-0.7,1-0.5,1.2-0.5s2-0.7,3.4-1.4c1.5-0.7,2.9-1.2,3.3-1.2
					c0.4,0-1.8,0.9-1.8,0.7s3.4-1.7,4.7-2.1c2.2-0.7,2.2-0.8,1.5-1.6c-2.1-2.3-6.2-2.7-9-1c-2.2,1.4-4,3.8-4.4,5.9
					C270.2,375.3,270,375.3,271.5,374.6z M275.8,392.9c-6.5-1.5-10.7-5.6-12.9-12.4c-0.6-1.8-0.6-7.2,0-9
					c2.5-7.7,8.2-12.3,15.4-12.3c4.1,0,7.5,1.4,10.4,4.3c2.1,2.1,4.8,6.6,4.8,8c0,0.9-0.5,1.2-5.5,3.2c-4.1,1.6-6,2.4-9.2,3.8
					c-0.6,0.2-1.4,0.6-1.8,0.8c-0.4,0.2-1.6,0.7-2.7,1.1c-1,0.4-2.1,0.9-2.4,1c-1,0.3,2.4,3.5,4.3,4c3.6,1,6.9,0.3,9.4-2
					c1-0.9,1.9-1.6,2.2-1.6c0.7,0,5.8,3.4,5.8,3.9c0,0.9-3.6,4.2-6,5.4c-2.2,1.2-7.2,2.6-8.8,2.5
					C278.6,393.5,277.2,393.2,275.8,392.9L275.8,392.9z"/>
				<path id="path4233" class="st5" d="M110.4,392.8c-5-0.8-9.8-3.4-14-7.7c-3-3-4.9-6.1-6.5-10.6c-1-2.8-1-12.2,0-15.1
					c3.3-9.1,9.7-15.2,18.7-17.9c2.9-0.9,12-0.7,14.5,0.2c3.9,1.4,8.7,4.2,10,5.8c0.5,0.6,0.2,1-2.1,3.3c-1.4,1.5-2.7,2.6-2.8,2.6
					c-0.1,0-0.8-0.5-1.4-1c-3.4-2.9-9.9-4.5-14.9-3.5c-5.6,1.1-10.3,4.6-12.9,9.9c-1.3,2.6-2.2,2.8-2.2,8.2c0,5.2,0.9,5.7,1.9,7.9
					c0.6,1.3,2.2,3.5,3.4,4.8c4.7,4.9,11.5,6.8,18.1,5.1c3.7-1,5.3-1.8,7.5-4c2-1.9,3.3-4.3,3.8-6.9l0.3-1.5l-8.3-0.1l-8.3-0.1v-3.8
					v-3.8l11.9,0c6.5,0,12,0,12.1,0c0.1,0,0.4,1,0.7,2.2c0.9,4.5-0.8,11.4-4,16.3c-2.6,4-5.5,6.2-11.5,8.9
					C122,393,114.7,393.5,110.4,392.8L110.4,392.8z"/>
				<path id="path4229" class="st5" d="M198.4,385.3c1.9-0.5,4.5-2.9,5.4-5.1c0.4-0.9,1-2.6,0.9-4.3c-0.1-2.4-0.6-4.1-1.1-4.7
					c-2.1-2.6-3.3-3.5-4.8-4.1c-3.5-1.2-6.8-0.6-9.4,1.9c-5.2,4.9-3.2,14,3.5,16.3C194.7,386.1,195.4,386.1,198.4,385.3z
					 M191.3,392.8c-4.4-0.9-8.9-4.4-10.9-8.3c-3.4-6.6-2.6-14.3,2.2-19.6c6.8-7.6,18.9-7.6,25.8,0c6,6.5,5.4,18.3-1.3,24
					c-3.2,2.7-6.2,3.9-10.4,4.1C194.8,393.1,192.3,393,191.3,392.8L191.3,392.8z"/>
				<path id="path4213" class="st5" d="M251.9,367.4v-25l4,0.1l4,0.1v24.8v24.8l-4,0.1l-4,0.1V367.4L251.9,367.4z"/>
				<path id="path4203" class="st5" d="M338.9,371.6c-0.1-0.4-1.8-5-3.8-10.3c-1.9-5.3-3.6-9.8-3.8-10c-0.3-0.3-3.6,8.2-3.8,9.9
					c-0.1,0.4-0.2,0.8-0.4,1.1c-0.4,0.6-3.6,9.2-3.6,9.7c0,0.2,3.5,0.4,7.8,0.4C338.5,372.3,339.1,372.2,338.9,371.6L338.9,371.6z
					 M309.2,391.3c0-0.2,1.7-4.8,3.7-10.2c2.1-5.4,4.5-11.9,5.5-14.5c2.6-7,6.7-17.9,7.8-20.7c0.5-1.4,1-2.7,1-3
					c0-0.3,1.4-0.4,3.8-0.4c3.3,0,3.9,0.1,4.1,0.7c1.1,2.8,14.9,39.4,15.8,41.9c0.6,1.7,1.4,3.8,1.8,4.7s0.7,1.7,0.7,1.7
					s-1.6,0.2-3.7,0.2h-3.7l-0.9-2.4c-0.5-1.3-1.5-4.2-2.3-6.5l-1.5-4.2h-10.2h-10.2l-0.7,1.7c-0.4,1-1.4,3.9-2.4,6.6l-1.7,4.8
					l-3.6,0.1C310.6,391.7,309.2,391.6,309.2,391.3z M397.5,392.3c-3.9-0.5-7.2-2.8-9.1-6.4c-0.7-1.4-0.6-1.6,1.3-2.4
					c1-0.4,1.9-0.9,2-1.1c0.2-0.3,0.6-0.1,1,0.5c3.5,4.3,4.2,4.7,8,4.4c2.3-0.2,2.6-0.3,3.7-1.6c2.2-2.7,0.6-4.4-5.7-6.1
					c-7.1-1.9-9.9-4.2-9.9-8.3c0-3.4,1.2-5.3,4.4-6.9c2.5-1.3,3-1.4,6.6-1.4c3.5,0,4.2,0.1,6.1,1.1c2.2,1.2,5.1,4.5,4.7,5.5
					c-0.1,0.3-0.4,0.4-0.5,0.3s-1.2,0.2-2.3,0.6c-1.3,0.6-2,0.7-2.1,0.4c-0.2-0.7-1.8-2-3.1-2.7c-1.6-0.8-5.2-0.5-6.7,0.6
					c-0.7,0.5-1.2,1.3-1.2,2.1c-0.2,1.8,1.2,2.7,6.3,4c6.3,1.6,7.8,2.5,9.4,5.5c1.1,2.2,0.7,6-0.8,8
					C407.1,391.7,403,393,397.5,392.3z M374.2,386c1-0.6,2.1-1.9,2.8-3.2c1-1.8,1.1-2.6,1.1-5c0-3.6-0.8-5.7-3.1-7.7
					c-3.5-3.1-7.6-3.1-10.9,0c-2.1,1.9-2.9,4-3,7c-0.1,4.6,1.7,7.9,5.2,9.6C368.6,387.8,372,387.5,374.2,386L374.2,386z
					 M366.5,392.3c-4.1-0.6-7.7-3.6-9.8-8.1c-0.9-2-1.1-2.8-1.1-6.2c0-5.1,1.2-8.4,4-11.1c3-3,5.2-3.8,9.4-3.8
					c3.8,0,6.1,0.9,8.2,3.1l1,1.1l-0.2-8.1l-0.2-8.1l2.8-0.1c1.6-0.1,2.9,0,3,0.3c0.1,0.2,0.1,9.4,0.1,20.4l-0.1,20h-2.7h-2.7
					l0.1-1.8l0.1-1.8l-1.6,1.4C374,392,370.7,392.9,366.5,392.3L366.5,392.3z"/>
			</g>
		</g>
		<g>
			<path class="st6" d="M142.7,436.4h-7.2c-0.1-1.7-0.5-2.9-1-3.7c-1-1.5-2.8-2.3-5.4-2.3c-2.2,0-4.3,0.8-6.1,2.4
				c-2.4,2.1-4.1,5.4-5.1,9.8c-0.7,3.4-0.6,6.1,0.2,8.2c1,2.4,3,3.6,5.9,3.6c2,0,3.8-0.6,5.4-1.7c1.6-1.1,2.8-2.7,3.7-4.8h7.2
				c-1.6,3.9-3.9,7-6.7,9.2c-3.2,2.4-6.8,3.6-11.1,3.6c-4.7,0-8.2-1.5-10.4-4.6c-2.3-3.2-2.8-7.8-1.6-13.6
				c1.2-5.9,3.8-10.4,7.6-13.7c3.5-3.1,7.6-4.6,12.3-4.6c4.8,0,8.3,1.4,10.5,4.2C142.7,430.7,143.3,433.4,142.7,436.4z"/>
			<path class="st6" d="M171.2,442l-3.8,17.8h-6.8l3.3-15.7c0.3-1.4,0.3-2.5,0.1-3.2c-0.4-1.2-1.6-1.8-3.4-1.8
				c-1.5,0-2.9,0.5-4.1,1.6c-1.2,1-2,2.5-2.4,4.3l-3.1,14.8h-6.8l7.4-34.6h6.8l-2.6,12.3c0.7-1.1,1.8-2,3.4-2.8
				c1.6-0.8,3.2-1.2,4.9-1.2c2.6,0,4.6,0.7,5.9,2.1C171.4,437.1,171.8,439.3,171.2,442z"/>
			<path class="st6" d="M204,434.1l-5.5,25.7h-6.5l0.8-3.7c-2.3,2.9-5.3,4.4-8.8,4.4c-2.7,0-4.7-0.8-5.9-2.3c-1.3-1.6-1.6-4-0.9-7.2
				l3.6-16.9h6.8l-3.4,15.9c-0.4,1.8-0.2,3.1,0.6,3.9c0.6,0.6,1.5,0.9,2.9,0.9c1.4,0,2.6-0.4,3.7-1.2c1.4-1,2.3-2.6,2.8-4.7
				l3.2-14.8H204z"/>
			<path class="st6" d="M232.9,434.1l-14.2,25.2c-2.7,4.8-4.6,7.8-6,9c-1.3,1.2-3.4,1.8-6.3,1.8h-1.1c-0.4,0-0.8,0-1.2,0
				c-0.3-0.1-0.6-0.1-0.7-0.1l1.2-5.4c0.2,0.1,0.6,0.1,1.2,0.1c1.4,0,2.4-0.2,3.1-0.6c0.8-0.5,1.6-1.6,2.2-3.3l-3.8-26.8h7.5
				l1.5,18.9l9.4-18.9H232.9z"/>
			<path class="st6" d="M248.9,452.3h7c-1.4,2.9-3.4,5-6,6.4c-2.2,1.2-4.5,1.8-7,1.8c-3.9,0-6.7-1-8.4-3c-1.9-2.4-2.4-6-1.3-11.1
				c0.9-4.1,2.7-7.3,5.5-9.7c2.6-2.2,5.8-3.3,9.5-3.3c3.2,0,5.7,0.9,7.4,2.6c2.2,2.4,2.8,6.2,1.7,11.5l-0.3,1.2h-17.6
				c-0.3,2.2,0,3.9,0.8,4.8c0.8,1,2.1,1.5,3.9,1.5c1,0,2-0.2,2.9-0.7C247.9,453.9,248.5,453.2,248.9,452.3z M252.7,424.1l4,7h-5.5
				l-2.3-3.9l-3.8,3.9h-5.5l7-7H252.7z M240.5,444.4h10.4c0.2-1.9-0.1-3.3-1-4.3c-0.7-0.8-1.8-1.2-3.1-1.2
				C243.8,438.9,241.7,440.7,240.5,444.4z"/>
			<path class="st6" d="M286.9,442l-3.8,17.8h-6.8l3.3-15.7c0.3-1.4,0.3-2.5,0.1-3.2c-0.4-1.2-1.6-1.8-3.4-1.8
				c-1.5,0-2.9,0.5-4.1,1.6s-2,2.5-2.4,4.3l-3.1,14.8H260l5.5-25.7h6.5l-0.8,3.8c1-1.2,2-2.2,3-2.8c1.7-1.1,3.6-1.6,5.8-1.6
				c2.6,0,4.6,0.7,5.9,2.1C287.1,437.1,287.5,439.3,286.9,442z"/>
			<path class="st6" d="M306.1,449.1h7c-0.3,1.4-0.2,2.6,0.5,3.5c1,1.4,2.8,2.1,5.6,2.1c2.1,0,3.8-0.3,5-0.8
				c1.7-0.7,2.8-1.9,3.1-3.6c0.3-1.2-0.1-2.2-1.1-2.8c-0.7-0.5-2.1-1-4.2-1.5l-3.6-0.9c-3.5-0.8-5.9-1.7-7-2.6
				c-2-1.6-2.6-4.1-1.8-7.5c0.6-2.7,1.9-4.9,3.9-6.8c2.8-2.6,6.7-3.9,11.7-3.9c4.7,0,8,1.3,9.9,4c1.4,2.1,1.9,4.5,1.3,7.2h-7
				c0.1-1.4,0-2.4-0.5-3.2c-0.9-1.4-2.7-2-5.4-2c-1.6,0-3.1,0.3-4.3,0.9c-1.5,0.8-2.4,1.8-2.7,3.3c-0.3,1.2,0,2.1,0.7,2.7
				c0.4,0.4,1.2,0.7,2.2,1l8,2c2.7,0.7,4.7,1.6,5.8,2.8c1.5,1.5,1.9,3.7,1.3,6.6c-0.8,3.5-2.5,6.2-5.2,8.2c-3,2.2-6.7,3.2-10.9,3.2
				c-5.6,0-9.3-1.4-11.2-4.2C305.8,454.6,305.5,452.1,306.1,449.1z"/>
			<path class="st6" d="M363.6,440.9l-3,13.9c-0.3,1.4-0.4,2.3-0.2,2.9c0.1,0.5,0.5,0.9,0.9,1.1l-0.2,1.1h-7.3
				c-0.1-0.9-0.1-1.4-0.1-1.7c0-0.3,0.1-0.7,0.2-1.4c-1.3,1.1-2.4,1.9-3.5,2.5c-1.7,0.9-3.6,1.3-5.6,1.3c-2.2,0-3.8-0.6-5-1.7
				c-1.4-1.4-1.8-3.3-1.2-5.8c0.5-2.4,1.6-4.3,3.3-5.8c1.5-1.3,3.5-2.1,5.8-2.5l6.3-0.9c0.9-0.2,1.6-0.4,2.1-0.7
				c0.4-0.3,0.7-0.8,0.8-1.3c0.3-1.3-0.1-2.1-1-2.5c-0.6-0.3-1.5-0.4-2.8-0.4c-1.5,0-2.7,0.4-3.5,1.2c-0.6,0.5-1,1.3-1.4,2.4h-6.6
				c1.1-3.6,3-6.1,5.6-7.4c1.9-1,4.5-1.5,7.8-1.5c2.6,0,4.7,0.4,6.2,1.3C363.4,436,364.2,438,363.6,440.9z M355,450.5l0.7-3.3
				c-0.4,0.3-1,0.6-1.6,0.8c-0.7,0.2-1.8,0.4-3.3,0.6c-1.5,0.2-2.7,0.6-3.4,1c-1,0.6-1.7,1.6-2,2.9c-0.2,1.1,0,1.9,0.6,2.4
				c0.5,0.5,1.1,0.7,1.9,0.7c1.6,0,3.1-0.5,4.5-1.4C353.8,453.3,354.6,452.1,355,450.5z M359.2,424.1l4,7h-5.5l-2.3-3.9l-3.8,3.9
				h-5.5l7-7H359.2z"/>
			<path class="st6" d="M395.3,434.1l-5.5,25.7h-6.5l0.8-3.7c-2.3,2.9-5.3,4.4-8.8,4.4c-2.7,0-4.7-0.8-5.9-2.3
				c-1.3-1.6-1.6-4-0.9-7.2l3.6-16.9h6.8l-3.4,15.9c-0.4,1.8-0.2,3.1,0.6,3.9c0.6,0.6,1.5,0.9,2.9,0.9c1.4,0,2.6-0.4,3.7-1.2
				c1.4-1,2.3-2.6,2.8-4.7l3.2-14.8H395.3z"/>
		</g>
	</g>
</g>
</svg>
