<?xml version="1.0" encoding="utf-8"?>
<!-- Generator: Adobe Illustrator 24.0.0, SVG Export Plug-In . SVG Version: 6.00 Build 0)  -->
<svg version="1.1" id="Camada_1" xmlns="http://www.w3.org/2000/svg" xmlns:xlink="http://www.w3.org/1999/xlink" x="0px" y="0px"
	 viewBox="0 0 500 500" style="enable-background:new 0 0 500 500;" xml:space="preserve">
<style type="text/css">
	.st0{fill:#FFFFFF;}
	.st1{fill:#969696;}
	.st2{fill:#FBBD04;}
	.st3{fill:#438EDC;}
	.st4{fill:#34A952;}
	.st5{fill:#7F7F7F;}
</style>
<g>
	<g>
		<rect x="5.1" y="4.9" class="st0" width="490" height="490"/>
		<path class="st1" d="M490.1,9.9v480h-480V9.9H490.1 M500.1-0.1H0.1v500h500V-0.1L500.1-0.1z"/>
	</g>
	<g>
		<g>
			<g>
				<path class="st2" d="M116.1,315.7L116.1,315.7c-25.7-14.8-34.6-48-19.7-73.7L203,57.3c14.8-25.7,48-34.6,73.7-19.7l0,0
					c25.7,14.8,34.6,48,19.7,73.7L189.8,296C175,321.7,141.8,330.5,116.1,315.7z"/>
				<path class="st3" d="M383.9,314.9L383.9,314.9c-25.7,14.8-58.8,5.9-73.7-19.7L203.6,110.5c-14.8-25.7-5.9-58.8,19.7-73.7l0,0
					C249,22,282.2,30.8,297,56.5l106.6,184.7C418.5,266.9,409.6,300.1,383.9,314.9z"/>
				<circle class="st4" cx="143.8" cy="268.2" r="54.7"/>
			</g>
			<g>
				<path id="path4243" class="st5" d="M234,385.5c4-1.2,6.4-4.7,6.4-9.4c0-2.9-0.8-5.2-2.4-6.9c-4.7-5-12.6-2.8-14.6,4
					c-0.8,2.8-0.8,3,0,6c0.8,2.7,3.1,5.5,5,5.9c0.6,0.1,1.4,0.4,1.8,0.6C231.6,386.2,231.7,386.2,234,385.5L234,385.5z M226.7,407.5
					c-4.2-1.4-8.1-4.7-10.1-8.6c-0.6-1.1-0.3-1.4,3.5-2.8c2.7-1,3.5-1.1,3.5-0.5c0,1,2.5,3.6,4.3,4.4c3.5,1.6,8.1,0.7,10.3-2.2
					c1-1.3,1.9-4.8,1.7-6.8l-0.1-1.1l-1.7,1.2c-2.4,1.6-6.3,2.4-9.4,1.8c-3.8-0.7-6.2-2-8.8-4.6c-2.7-2.8-3.9-5-4.7-9
					c-1.7-8.1,3.5-16.8,11.5-19.4c4.1-1.3,9.8-0.5,12.2,1.8l0.9,0.9l0.1-1.2l0.1-1.2h3.7h3.7l0.1,16.4c0.1,17.2-0.1,19.6-1.8,23.2
					c-1.8,3.6-5.2,6.5-9.4,7.8C233.8,408.4,229.5,408.4,226.7,407.5z"/>
				<path id="path4239" class="st5" d="M164,384.2c3.2-2.2,4.7-7,3.6-11.1c-0.9-3.4-4.9-6.6-8.2-6.6c-5.4,0-9.3,4-9.4,9.5
					c0,4.4,2.7,8.5,6.3,9.4C158.6,386,162.3,385.4,164,384.2z M155.8,392.8c-6.5-1.2-11.2-5.4-13.4-12.1c-1-3.1-0.7-8.4,0.7-11.4
					c3-6.5,8.8-10.2,15.8-10.2c13.4,0,21.2,13.6,15,25.7c-1.8,3.5-6.9,7.2-11,7.9C159.4,393.4,158.9,393.4,155.8,392.8z"/>
				<path id="path4235" class="st5" d="M271.6,374.5c1.5-0.7,1-0.5,1.2-0.5c0.3,0,2-0.7,3.4-1.4c1.5-0.7,2.9-1.2,3.3-1.2
					c0.4,0-1.8,0.9-1.8,0.7c0-0.2,3.4-1.7,4.7-2.1c2.2-0.7,2.2-0.8,1.5-1.6c-2.1-2.3-6.2-2.7-9-1c-2.2,1.4-4,3.8-4.4,5.9
					C270.3,375.2,270.1,375.2,271.6,374.5z M275.9,392.8c-6.5-1.5-10.7-5.6-12.9-12.4c-0.6-1.8-0.6-7.2,0-9
					c2.5-7.7,8.2-12.3,15.4-12.3c4.1,0,7.5,1.4,10.4,4.3c2.1,2.1,4.8,6.6,4.8,8c0,0.9-0.5,1.2-5.5,3.2c-4.1,1.6-6,2.4-9.2,3.8
					c-0.6,0.2-1.4,0.6-1.8,0.8c-0.4,0.2-1.6,0.7-2.7,1.1s-2.1,0.9-2.4,1c-1,0.3,2.4,3.5,4.3,4c3.6,1,6.9,0.3,9.4-2
					c1-0.9,1.9-1.6,2.2-1.6c0.7,0,5.8,3.4,5.8,3.9c0,0.9-3.6,4.2-6,5.4c-2.2,1.2-7.2,2.6-8.8,2.5
					C278.6,393.4,277.2,393.2,275.9,392.8L275.9,392.8z"/>
				<path id="path4233" class="st5" d="M110.5,392.7c-5-0.8-9.8-3.4-14-7.7c-3-3-4.9-6.1-6.5-10.6c-1-2.8-1-12.2,0-15.1
					c3.3-9.1,9.7-15.2,18.7-17.9c2.9-0.9,12-0.7,14.5,0.2c3.9,1.4,8.7,4.2,10,5.8c0.5,0.6,0.2,1-2.1,3.3c-1.4,1.5-2.7,2.6-2.8,2.6
					c-0.1,0-0.8-0.5-1.4-1c-3.4-2.9-9.9-4.5-14.9-3.5c-5.6,1.1-10.3,4.6-12.9,9.9c-1.3,2.6-2.2,2.8-2.2,8.2c0,5.2,0.9,5.7,1.9,7.9
					c0.6,1.3,2.2,3.5,3.4,4.8c4.7,4.9,11.5,6.8,18.1,5.1c3.7-1,5.3-1.8,7.5-4c2-1.9,3.3-4.3,3.8-6.9l0.3-1.5l-8.3-0.1l-8.3-0.1v-3.8
					v-3.8l11.9,0c6.5,0,12,0,12.1,0c0.1,0,0.4,1,0.7,2.2c0.9,4.5-0.8,11.4-4,16.3c-2.6,4-5.5,6.2-11.5,8.9
					C122.1,392.9,114.8,393.4,110.5,392.7L110.5,392.7z"/>
				<path id="path4229" class="st5" d="M198.4,385.3c1.9-0.5,4.5-2.9,5.4-5.1c0.4-0.9,1-2.6,0.9-4.3c-0.1-2.4-0.6-4.1-1.1-4.7
					c-2.1-2.6-3.3-3.5-4.8-4.1c-3.5-1.2-6.8-0.6-9.4,1.9c-5.2,4.9-3.2,14,3.5,16.3C194.8,386,195.5,386,198.4,385.3z M191.4,392.7
					c-4.4-0.9-8.9-4.4-10.9-8.3c-3.4-6.6-2.6-14.3,2.2-19.6c6.8-7.6,18.9-7.6,25.8,0c6,6.5,5.4,18.3-1.3,24
					c-3.2,2.7-6.2,3.9-10.4,4.1C194.8,393,192.4,392.9,191.4,392.7L191.4,392.7z"/>
				<path id="path4213" class="st5" d="M251.9,367.3v-25l4,0.1l4,0.1v24.8v24.8l-4,0.1l-4,0.1V367.3L251.9,367.3z"/>
				<path id="path4203" class="st5" d="M338.9,371.5c-0.1-0.4-1.8-5-3.8-10.3c-1.9-5.3-3.6-9.8-3.8-10c-0.3-0.3-3.6,8.2-3.8,9.9
					c-0.1,0.4-0.2,0.8-0.4,1.1c-0.4,0.6-3.6,9.2-3.6,9.7c0,0.2,3.5,0.4,7.8,0.4C338.6,372.2,339.2,372.2,338.9,371.5L338.9,371.5z
					 M309.2,391.3c0-0.2,1.7-4.8,3.7-10.2c2.1-5.4,4.5-11.9,5.5-14.5c2.6-7,6.7-17.9,7.8-20.7c0.5-1.4,1-2.7,1-3
					c0-0.3,1.4-0.4,3.8-0.4c3.3,0,3.9,0.1,4.1,0.7c1.1,2.8,14.9,39.4,15.8,41.9c0.6,1.7,1.4,3.8,1.8,4.7s0.7,1.7,0.7,1.7
					s-1.6,0.2-3.7,0.2h-3.7l-0.9-2.4c-0.5-1.3-1.5-4.2-2.3-6.5l-1.5-4.2h-10.2h-10.2l-0.7,1.7c-0.4,1-1.4,3.9-2.4,6.6l-1.7,4.8
					l-3.6,0.1C310.7,391.6,309.2,391.5,309.2,391.3z M397.6,392.2c-3.9-0.5-7.2-2.8-9.1-6.4c-0.7-1.4-0.6-1.6,1.3-2.4
					c1-0.4,1.9-0.9,2-1.1c0.2-0.3,0.6-0.1,1,0.5c3.5,4.3,4.2,4.7,8,4.4c2.3-0.2,2.6-0.3,3.7-1.6c2.2-2.7,0.6-4.4-5.7-6.1
					c-7.1-1.9-9.9-4.2-9.9-8.3c0-3.4,1.2-5.3,4.4-6.9c2.5-1.3,3-1.4,6.6-1.4c3.5,0,4.2,0.1,6.1,1.1c2.2,1.2,5.1,4.5,4.7,5.5
					c-0.1,0.3-0.4,0.4-0.5,0.3s-1.2,0.2-2.3,0.6c-1.3,0.6-2,0.7-2.1,0.4c-0.2-0.7-1.8-2-3.1-2.7c-1.6-0.8-5.2-0.5-6.7,0.6
					c-0.7,0.5-1.2,1.3-1.2,2.1c-0.2,1.8,1.2,2.7,6.3,4c6.3,1.6,7.8,2.5,9.4,5.5c1.1,2.2,0.7,6-0.8,8
					C407.1,391.6,403.1,392.9,397.6,392.2z M374.2,386c1-0.6,2.1-1.9,2.8-3.2c1-1.8,1.1-2.6,1.1-5c0-3.6-0.8-5.7-3.1-7.7
					c-3.5-3.1-7.6-3.1-10.9,0c-2.1,1.9-2.9,4-3,7c-0.1,4.6,1.7,7.9,5.2,9.6C368.6,387.7,372,387.4,374.2,386L374.2,386z
					 M366.6,392.2c-4.1-0.6-7.7-3.6-9.8-8.1c-0.9-2-1.1-2.8-1.1-6.2c0-5.1,1.2-8.4,4-11.1c3-3,5.2-3.8,9.4-3.8
					c3.8,0,6.1,0.9,8.2,3.1l1,1.1l-0.2-8.1l-0.2-8.1l2.8-0.1c1.6-0.1,2.9,0,3,0.3c0.1,0.2,0.1,9.4,0.1,20.4l-0.1,20h-2.7h-2.7
					l0.1-1.8l0.1-1.8l-1.6,1.4C374.1,391.9,370.7,392.8,366.6,392.2L366.6,392.2z"/>
			</g>
		</g>
		<g>
			<path class="st5" d="M195.6,436.3h-7.2c-0.5-1.7-1.1-2.9-1.8-3.7c-1.3-1.5-3.3-2.3-5.8-2.3c-2.2,0-4.1,0.8-5.6,2.4
				c-2,2.1-3,5.4-3,9.8c0,3.4,0.7,6.1,2,8.2c1.5,2.4,3.7,3.6,6.6,3.6c2,0,3.7-0.6,5-1.7c1.3-1.1,2.2-2.7,2.6-4.8h7.2
				c-0.8,3.9-2.4,7-4.8,9.2c-2.6,2.4-6.1,3.6-10.3,3.6c-4.7,0-8.5-1.5-11.4-4.6c-3-3.2-4.5-7.8-4.5-13.6c0-5.9,1.5-10.4,4.6-13.7
				c2.9-3.1,6.7-4.6,11.3-4.6c4.8,0,8.6,1.4,11.4,4.2C194.4,430.7,195.6,433.3,195.6,436.3z"/>
			<path class="st5" d="M222.4,436.4c0.7-0.4,1.2-0.9,1.5-1.6s0.5-1.4,0.5-2.2h-2.5v-4h5.7v4.1c0,1.2-0.2,2.2-0.7,2.9
				c-0.5,0.8-1.4,1.5-2.9,2.2c2,2.3,3,5.3,3,9c0,4.4-1.3,7.8-4,10.2c-2.4,2.2-5.4,3.3-9.2,3.3c-3.7,0-6.7-1.1-9.1-3.3
				c-2.7-2.4-4-5.8-4-10.2c0-4.4,1.3-7.8,4-10.2c2.4-2.2,5.4-3.3,9.2-3.3c1.5,0,3,0.3,4.5,0.8S221.1,435.4,222.4,436.4z
				 M220.1,446.9c0-2.1-0.4-3.8-1.1-5.1c-1-1.8-2.7-2.7-5.1-2.7c-2.3,0-4,0.9-5,2.7c-0.8,1.4-1.2,3.1-1.2,5.2c0,2.1,0.4,3.8,1.1,5.1
				c1,1.8,2.7,2.7,5.1,2.7c2.3,0,4-0.9,5-2.7C219.7,450.7,220.1,448.9,220.1,446.9z"/>
			<path class="st5" d="M246.1,459.7v-34.6H263c3.8,0,6.6,1,8.5,3.1c1.4,1.6,2.1,3.5,2.1,5.8c0,2.2-0.5,3.9-1.5,5.1
				c-0.6,0.8-1.5,1.4-2.7,1.9c2,0.8,3.4,2,4.3,3.5c0.8,1.3,1.1,2.9,1.1,4.9c0,1.4-0.3,2.7-0.8,3.9s-1.3,2.3-2.2,3.2
				c-1.2,1.1-2.4,1.9-3.6,2.3c-1.7,0.6-4.2,0.9-7.4,0.9H246.1z M253.1,431v7.5h8.5c1.6,0,2.8-0.3,3.6-0.9c1-0.7,1.5-1.7,1.5-3
				c0-1.4-0.4-2.3-1.3-2.9c-0.9-0.5-2.2-0.8-4-0.8H253.1z M253.1,444.5v9.3h8.9c1.8,0,3.2-0.4,4.2-1.2c1-0.8,1.4-2.1,1.4-3.9
				c0-1.4-0.5-2.4-1.5-3.1c-1-0.7-2.2-1-3.7-1H253.1z"/>
			<path class="st5" d="M302.8,440.8v13.9c0,1.4,0.1,2.3,0.4,2.9c0.3,0.5,0.6,0.9,1.2,1.1v1.1H297c-0.3-0.9-0.4-1.4-0.5-1.7
				c-0.1-0.3-0.1-0.7-0.1-1.4c-1,1.1-2,1.9-3,2.5c-1.5,0.9-3.3,1.3-5.3,1.3c-2.2,0-3.9-0.6-5.4-1.7c-1.6-1.4-2.5-3.3-2.5-5.8
				c0-2.4,0.7-4.3,2.1-5.8c1.3-1.3,3-2.1,5.3-2.5l6.1-0.9c0.9-0.2,1.5-0.4,1.9-0.7s0.5-0.8,0.5-1.3c0-1.3-0.5-2.1-1.6-2.5
				c-0.7-0.3-1.6-0.4-2.9-0.4c-1.5,0-2.6,0.4-3.3,1.2c-0.5,0.5-0.7,1.3-0.9,2.4h-6.6c0.3-3.6,1.7-6.1,4.1-7.4c1.7-1,4.2-1.5,7.4-1.5
				c2.6,0,4.8,0.4,6.5,1.3C301.6,435.9,302.8,437.9,302.8,440.8z M293.3,431.9h-3.4c0-1.5,0.1-2.6,0.4-3.4c0.3-0.8,0.9-1.5,1.8-2.1
				c0.9-0.6,1.3-1.3,1.3-2c0-0.7-0.2-1.2-0.5-1.4c-0.3-0.3-0.8-0.4-1.2-0.4c-0.8,0-1.3,0.2-1.6,0.6c-0.3,0.4-0.4,1-0.4,1.9l-3.8,0.1
				c0-2.1,0.6-3.6,1.8-4.6c1-0.8,2.3-1.2,3.7-1.2c1.3,0,2.4,0.3,3.4,0.8c1.7,0.9,2.5,2.3,2.5,4.2c0,0.9-0.2,1.7-0.6,2.3
				c-0.4,0.6-1.1,1.3-2,1.9C293.7,429.2,293.3,430.3,293.3,431.9z M296.3,450.4v-3.3c-0.4,0.3-0.9,0.6-1.5,0.8
				c-0.6,0.2-1.7,0.4-3.2,0.6c-1.5,0.2-2.5,0.6-3.2,1c-0.9,0.6-1.3,1.6-1.3,2.9c0,1.1,0.4,1.9,1.1,2.4c0.6,0.5,1.3,0.7,2,0.7
				c1.6,0,3-0.5,4.2-1.4S296.3,452,296.3,450.4z"/>
			<path class="st5" d="M332.9,441.9v17.8h-6.8v-15.7c0-1.4-0.2-2.5-0.6-3.2c-0.7-1.2-1.9-1.8-3.8-1.8c-1.5,0-2.8,0.5-3.8,1.6
				s-1.5,2.5-1.5,4.3v14.8h-6.8V434h6.5v3.8c0.8-1.2,1.6-2.2,2.4-2.8c1.4-1.1,3.2-1.6,5.4-1.6c2.6,0,4.7,0.7,6.3,2.1
				C332.1,437,332.9,439.2,332.9,441.9z"/>
		</g>
	</g>
</g>
</svg>
